<?xml version="1.0" standalone="no"?>
<!DOCTYPE svg PUBLIC "-//W3C//DTD SVG 20010904//EN"
 "http://www.w3.org/TR/2001/REC-SVG-20010904/DTD/svg10.dtd">
<svg version="1.0" xmlns="http://www.w3.org/2000/svg"
 width="928.000000pt" height="928.000000pt" viewBox="0 0 928.000000 928.000000"
 preserveAspectRatio="xMidYMid meet">
<metadata>
Created by potrace 1.11, written by Peter Selinger 2001-2013
</metadata>
<g transform="translate(0.000000,928.000000) scale(0.100000,-0.100000)"
fill="#000000" stroke="none">
<path d="M4603 9213 c-131 -181 -175 -245 -358 -518 -208 -310 -304 -460 -467
-725 -106 -173 -368 -618 -368 -626 0 -2 -11 -21 -23 -42 -25 -39 -176 -315
-271 -494 -66 -126 -238 -470 -291 -583 -21 -44 -55 -118 -77 -165 -159 -339
-329 -757 -453 -1110 -39 -110 -97 -283 -101 -300 -2 -8 -26 -91 -54 -184 -28
-94 -52 -179 -55 -190 -2 -12 -18 -77 -35 -146 -18 -69 -34 -136 -36 -150 -3
-14 -7 -33 -10 -42 -3 -9 -7 -27 -9 -40 -3 -13 -9 -45 -15 -73 -14 -70 -18
-87 -24 -131 -4 -22 -10 -61 -16 -89 -10 -55 -16 -93 -25 -170 -3 -27 -8 -59
-10 -70 -2 -11 -7 -49 -10 -85 -3 -36 -8 -87 -11 -115 -10 -82 -13 -606 -4
-660 4 -27 11 -79 14 -114 4 -35 14 -98 22 -140 8 -42 17 -91 20 -110 3 -18
17 -74 30 -125 14 -50 26 -98 29 -106 9 -35 87 -254 108 -302 250 -585 701
-1067 1231 -1317 153 -72 181 -84 329 -133 249 -82 470 -125 749 -145 173 -12
473 -6 618 12 66 8 172 24 196 29 12 2 37 7 55 10 55 9 76 14 178 40 871 227
1518 835 1813 1706 36 107 74 242 84 300 3 14 9 41 14 60 4 19 14 69 20 110 6
41 13 86 15 99 14 85 20 217 20 426 0 241 -6 357 -30 565 -6 51 -58 374 -70
430 -3 14 -7 37 -10 52 -14 74 -82 356 -124 508 -107 394 -319 983 -506 1405
-174 392 -323 702 -509 1055 -30 58 -71 137 -92 175 -20 39 -56 104 -79 145
-23 41 -54 96 -69 123 -66 119 -81 144 -103 179 -12 21 -23 40 -23 42 0 2 -28
51 -61 108 -34 57 -69 117 -79 133 -80 138 -323 529 -332 533 -5 2 -8 8 -8 12
0 8 -145 238 -167 265 -8 10 -117 173 -138 206 -11 19 -15 24 -149 219 -55 80
-105 150 -110 157 -6 6 -33 43 -61 82 -27 39 -52 71 -55 71 -3 0 -24 -26 -47
-57z"/>
</g>
</svg>
