<svg xmlns="http://www.w3.org/2000/svg" viewBox="0 0 32 31"><g id="Layer_2" data-name="Layer 2"><g id="Layer_1-2" data-name="Layer 1"><g id="Layer_2-2" data-name="Layer 2"><g id="Surfaces"><g id="Drawing_Surface" data-name="Drawing Surface"><g id="Outline_no_shadow" data-name="Outline no shadow"><path fill="#300" fill-rule="evenodd" d="M5.65,0h20.7A5.64,5.64,0,0,1,32,5.63V25.37A5.65,5.65,0,0,1,26.35,31H5.65A5.64,5.64,0,0,1,0,25.37V5.63A5.65,5.65,0,0,1,5.65,0Z"/></g></g></g><g id="Outlined_Mnemonics_Logos" data-name="Outlined Mnemonics Logos"><g id="Ai"><path fill="#ff9a00" fill-rule="evenodd" d="M15.56,18.6H10.62l-1,3.12a.26.26,0,0,1-.25.19H6.85q-.21,0-.15-.24L11,9.39c0-.13.09-.27.13-.44a4.92,4.92,0,0,0,.09-.86.13.13,0,0,1,.11-.15h3.44c.1,0,.15,0,.17.11L19.77,21.7c.05.14,0,.21-.13.21H16.86a.19.19,0,0,1-.21-.15Zm-4.17-2.68h3.38l-.3-1c-.12-.36-.24-.74-.37-1.15s-.25-.81-.38-1.21-.25-.8-.35-1.17-.21-.73-.29-1h0a16.52,16.52,0,0,1-.45,1.71c-.2.64-.41,1.29-.61,2S11.59,15.35,11.39,15.92Z"/><path fill="#ff9a00" fill-rule="evenodd" d="M22.66,10.2a1.55,1.55,0,0,1-1.18-.47A1.76,1.76,0,0,1,21,8.51a1.56,1.56,0,0,1,.49-1.18,1.65,1.65,0,0,1,1.18-.46,1.6,1.6,0,0,1,1.21.46,1.63,1.63,0,0,1,.44,1.18,1.6,1.6,0,0,1-1.69,1.69ZM21.18,21.7V11.5c0-.13.06-.19.18-.19H24c.11,0,.17.06.17.19V21.7c0,.14-.06.21-.17.21H21.38A.18.18,0,0,1,21.18,21.7Z"/></g></g></g></g></g></svg>